<svg xmlns="http://www.w3.org/2000/svg" width="153.061" height="156.982" viewBox="0 0 153.061 156.982"><g id="Group_9" data-name="Group 9" transform="translate(0 59.108)"><path id="Path_15" fill="#d0d1f6" d="M16.2-51.007a8.1,8.1,0,0,1-8.091,8.1A8.11,8.11,0,0,1,0-51.007a8.109,8.109,0,0,1,8.108-8.1A8.1,8.1,0,0,1,16.2-51.007Z" data-name="Path 15"/><path id="Path_16" fill="#d0d1f6" d="M29.082-51.007a8.1,8.1,0,0,1-8.091,8.1,8.1,8.1,0,0,1-8.108-8.1,8.1,8.1,0,0,1,8.108-8.1A8.1,8.1,0,0,1,29.082-51.007Z" data-name="Path 16" transform="translate(21.332)"/><path id="Path_17" fill="#d0d1f6" d="M41.965-51.007a8.1,8.1,0,0,1-8.108,8.1,8.1,8.1,0,0,1-8.091-8.1,8.1,8.1,0,0,1,8.091-8.1A8.1,8.1,0,0,1,41.965-51.007Z" data-name="Path 17" transform="translate(42.665)"/><path id="Path_18" fill="#d0d1f6" d="M54.848-51.007a8.11,8.11,0,0,1-8.108,8.1,8.1,8.1,0,0,1-8.091-8.1,8.1,8.1,0,0,1,8.091-8.1A8.109,8.109,0,0,1,54.848-51.007Z" data-name="Path 18" transform="translate(63.997)"/><path id="Path_19" fill="#d0d1f6" d="M67.742-51.007a8.11,8.11,0,0,1-8.108,8.1,8.11,8.11,0,0,1-8.108-8.1,8.109,8.109,0,0,1,8.108-8.1A8.109,8.109,0,0,1,67.742-51.007Z" data-name="Path 19" transform="translate(85.319)"/><path id="Path_20" fill="#d0d1f6" d="M16.2-40.406a8.1,8.1,0,0,1-8.091,8.1A8.109,8.109,0,0,1,0-40.406a8.109,8.109,0,0,1,8.108-8.1A8.1,8.1,0,0,1,16.2-40.406Z" data-name="Path 20" transform="translate(0 17.555)"/><path id="Path_21" fill="#d0d1f6" d="M29.082-40.406a8.1,8.1,0,0,1-8.091,8.1,8.1,8.1,0,0,1-8.108-8.1,8.1,8.1,0,0,1,8.108-8.1A8.1,8.1,0,0,1,29.082-40.406Z" data-name="Path 21" transform="translate(21.332 17.555)"/><path id="Path_22" fill="#d0d1f6" d="M41.965-40.406a8.1,8.1,0,0,1-8.108,8.1,8.1,8.1,0,0,1-8.091-8.1,8.1,8.1,0,0,1,8.091-8.1A8.1,8.1,0,0,1,41.965-40.406Z" data-name="Path 22" transform="translate(42.665 17.555)"/><path id="Path_23" fill="#d0d1f6" d="M54.848-40.406a8.109,8.109,0,0,1-8.108,8.1,8.1,8.1,0,0,1-8.091-8.1,8.1,8.1,0,0,1,8.091-8.1A8.109,8.109,0,0,1,54.848-40.406Z" data-name="Path 23" transform="translate(63.997 17.555)"/><path id="Path_24" fill="#d0d1f6" d="M67.742-40.406a8.109,8.109,0,0,1-8.108,8.1,8.109,8.109,0,0,1-8.108-8.1,8.109,8.109,0,0,1,8.108-8.1A8.109,8.109,0,0,1,67.742-40.406Z" data-name="Path 24" transform="translate(85.319 17.555)"/><path id="Path_25" fill="#d0d1f6" d="M16.2-29.8a8.1,8.1,0,0,1-8.091,8.1A8.109,8.109,0,0,1,0-29.8a8.109,8.109,0,0,1,8.108-8.1A8.1,8.1,0,0,1,16.2-29.8Z" data-name="Path 25" transform="translate(0 35.109)"/><path id="Path_26" fill="#d0d1f6" d="M29.082-29.8a8.1,8.1,0,0,1-8.091,8.1,8.1,8.1,0,0,1-8.108-8.1,8.1,8.1,0,0,1,8.108-8.1A8.1,8.1,0,0,1,29.082-29.8Z" data-name="Path 26" transform="translate(21.332 35.109)"/><path id="Path_27" fill="#d0d1f6" d="M41.965-29.8a8.1,8.1,0,0,1-8.108,8.1,8.1,8.1,0,0,1-8.091-8.1,8.1,8.1,0,0,1,8.091-8.1A8.1,8.1,0,0,1,41.965-29.8Z" data-name="Path 27" transform="translate(42.665 35.109)"/><path id="Path_28" fill="#d0d1f6" d="M54.848-29.8a8.109,8.109,0,0,1-8.108,8.1,8.1,8.1,0,0,1-8.091-8.1,8.1,8.1,0,0,1,8.091-8.1A8.109,8.109,0,0,1,54.848-29.8Z" data-name="Path 28" transform="translate(63.997 35.109)"/><path id="Path_29" fill="#d0d1f6" d="M67.742-29.8a8.109,8.109,0,0,1-8.108,8.1,8.109,8.109,0,0,1-8.108-8.1,8.109,8.109,0,0,1,8.108-8.1A8.109,8.109,0,0,1,67.742-29.8Z" data-name="Path 29" transform="translate(85.319 35.109)"/><path id="Path_30" fill="#d0d1f6" d="M16.2-19.2a8.1,8.1,0,0,1-8.091,8.1A8.109,8.109,0,0,1,0-19.2a8.11,8.11,0,0,1,8.108-8.1A8.1,8.1,0,0,1,16.2-19.2Z" data-name="Path 30" transform="translate(0 52.662)"/><path id="Path_31" fill="#d0d1f6" d="M29.082-19.2a8.1,8.1,0,0,1-8.091,8.1,8.1,8.1,0,0,1-8.108-8.1,8.1,8.1,0,0,1,8.108-8.1A8.1,8.1,0,0,1,29.082-19.2Z" data-name="Path 31" transform="translate(21.332 52.662)"/><path id="Path_32" fill="#d0d1f6" d="M41.965-19.2a8.1,8.1,0,0,1-8.108,8.1,8.1,8.1,0,0,1-8.091-8.1,8.1,8.1,0,0,1,8.091-8.1A8.1,8.1,0,0,1,41.965-19.2Z" data-name="Path 32" transform="translate(42.665 52.662)"/><path id="Path_33" fill="#d0d1f6" d="M54.848-19.2a8.109,8.109,0,0,1-8.108,8.1,8.1,8.1,0,0,1-8.091-8.1,8.1,8.1,0,0,1,8.091-8.1A8.11,8.11,0,0,1,54.848-19.2Z" data-name="Path 33" transform="translate(63.997 52.662)"/><path id="Path_34" fill="#d0d1f6" d="M67.742-19.2a8.109,8.109,0,0,1-8.108,8.1,8.109,8.109,0,0,1-8.108-8.1,8.11,8.11,0,0,1,8.108-8.1A8.11,8.11,0,0,1,67.742-19.2Z" data-name="Path 34" transform="translate(85.319 52.662)"/><path id="Path_35" fill="#d0d1f6" d="M16.2-8.6A8.1,8.1,0,0,1,8.108-.5,8.109,8.109,0,0,1,0-8.6a8.11,8.11,0,0,1,8.108-8.1A8.1,8.1,0,0,1,16.2-8.6Z" data-name="Path 35" transform="translate(0 70.217)"/><path id="Path_36" fill="#d0d1f6" d="M29.082-8.6A8.1,8.1,0,0,1,20.991-.5a8.1,8.1,0,0,1-8.108-8.1,8.1,8.1,0,0,1,8.108-8.1A8.1,8.1,0,0,1,29.082-8.6Z" data-name="Path 36" transform="translate(21.332 70.217)"/><path id="Path_37" fill="#d0d1f6" d="M41.965-8.6A8.1,8.1,0,0,1,33.857-.5a8.1,8.1,0,0,1-8.091-8.1,8.1,8.1,0,0,1,8.091-8.1A8.1,8.1,0,0,1,41.965-8.6Z" data-name="Path 37" transform="translate(42.665 70.217)"/><path id="Path_38" fill="#d0d1f6" d="M54.848-8.6A8.109,8.109,0,0,1,46.74-.5a8.1,8.1,0,0,1-8.091-8.1,8.1,8.1,0,0,1,8.091-8.1A8.11,8.11,0,0,1,54.848-8.6Z" data-name="Path 38" transform="translate(63.997 70.217)"/><path id="Path_39" fill="#d0d1f6" d="M67.742-8.6A8.109,8.109,0,0,1,59.634-.5a8.109,8.109,0,0,1-8.108-8.1,8.11,8.11,0,0,1,8.108-8.1A8.11,8.11,0,0,1,67.742-8.6Z" data-name="Path 39" transform="translate(85.319 70.217)"/><path id="Path_40" fill="#d0d1f6" d="M16.2,2A8.1,8.1,0,1,1,8.108-6.1,8.1,8.1,0,0,1,16.2,2Z" data-name="Path 40" transform="translate(0 87.771)"/><path id="Path_41" fill="#d0d1f6" d="M29.082,2a8.1,8.1,0,1,1-8.091-8.1A8.1,8.1,0,0,1,29.082,2Z" data-name="Path 41" transform="translate(21.332 87.771)"/><path id="Path_42" fill="#d0d1f6" d="M41.965,2a8.1,8.1,0,1,1-8.108-8.1A8.1,8.1,0,0,1,41.965,2Z" data-name="Path 42" transform="translate(42.665 87.771)"/><path id="Path_43" fill="#d0d1f6" d="M54.848,2A8.1,8.1,0,1,1,46.74-6.1,8.11,8.11,0,0,1,54.848,2Z" data-name="Path 43" transform="translate(63.997 87.771)"/><path id="Path_44" fill="#d0d1f6" d="M67.742,2a8.108,8.108,0,1,1-8.108-8.1A8.11,8.11,0,0,1,67.742,2Z" data-name="Path 44" transform="translate(85.319 87.771)"/></g></svg>